<?xml version="1.0" encoding="utf-8"?>
<!-- Generator: Adobe Illustrator 22.0.0, SVG Export Plug-In . SVG Version: 6.00 Build 0)  -->
<svg version="1.1" id="Слой_1" xmlns="http://www.w3.org/2000/svg" xmlns:xlink="http://www.w3.org/1999/xlink" x="0px" y="0px"
	 viewBox="0 0 133 133" style="enable-background:new 0 0 133 133;" xml:space="preserve">
<style type="text/css">
	.st0{fill:none;}
	.st1{fill:url(#SVGID_1_);}
	.st2{fill:url(#SVGID_2_);}
	.st3{fill:url(#SVGID_3_);}
	.st4{fill:url(#SVGID_4_);}
	.st5{fill:url(#SVGID_5_);}
	.st6{fill:url(#SVGID_6_);}
	.st7{fill:url(#SVGID_7_);}
	.st8{fill:url(#SVGID_8_);}
	.st9{fill:url(#SVGID_9_);}
	.st10{fill:url(#SVGID_10_);}
	.st11{fill:url(#SVGID_11_);}
	.st12{fill:url(#SVGID_12_);}
	.st13{fill:url(#SVGID_13_);}
	.st14{fill:url(#SVGID_14_);}
	.st15{fill:url(#SVGID_15_);}
	.st16{fill:url(#SVGID_16_);}
	.st17{fill:url(#SVGID_17_);}
	.st18{fill:url(#SVGID_18_);}
	.st19{fill:url(#SVGID_19_);}
	.st20{fill:url(#SVGID_20_);}
	.st21{fill:url(#SVGID_21_);}
	.st22{fill:url(#SVGID_22_);}
	.st23{fill:url(#SVGID_23_);}
	.st24{fill:url(#SVGID_24_);}
	.st25{fill:url(#SVGID_25_);}
	.st26{fill:url(#SVGID_26_);}
	.st27{fill:#A72353;}
	.st28{fill:#A62353;}
	.st29{fill:#A52453;}
	.st30{fill:#673C52;}
	.st31{fill:#663C52;}
	.st32{fill:#653D52;}
	.st33{fill:#643D52;}
	.st34{fill:#633D52;}
	.st35{fill:#623E52;}
	.st36{fill:#613E52;}
	.st37{fill:#603F52;}
	.st38{fill:#5F3F52;}
	.st39{fill:#5E3F52;}
	.st40{fill:#5D4052;}
	.st41{fill:#5C4052;}
	.st42{fill:#5B4052;}
	.st43{fill:#5A4152;}
	.st44{fill:url(#SVGID_27_);}
	.st45{fill:url(#SVGID_28_);}
	.st46{fill:url(#SVGID_29_);}
	.st47{fill:url(#SVGID_30_);}
	.st48{fill:url(#SVGID_31_);}
	.st49{fill:url(#SVGID_32_);}
	.st50{fill:url(#SVGID_33_);}
	.st51{fill:url(#SVGID_34_);}
	.st52{fill:url(#SVGID_35_);}
	.st53{fill:url(#SVGID_36_);}
	.st54{fill:url(#SVGID_37_);}
	.st55{fill:url(#SVGID_38_);}
	.st56{fill:url(#SVGID_39_);}
</style>
<g>
	<path class="st0" d="M48.9,24.4c1.9-0.7,3.9-1.3,6-1.8c-0.7-0.5-1.4-1.1-2-1.7C51.6,22.1,50.2,23.3,48.9,24.4z"/>
	<ellipse transform="matrix(0.9871 -0.1602 0.1602 0.9871 -10.6955 11.587)" class="st0" cx="66.5" cy="72.1" rx="34.7" ry="34.7"/>
	
		<linearGradient id="SVGID_1_" gradientUnits="userSpaceOnUse" x1="14.5786" y1="-519.9019" x2="35.0991" y2="-540.4224" gradientTransform="matrix(4.6259 0 0 -4.6259 -47.1367 -2386.4612)">
		<stop  offset="0" style="stop-color:#FF0054"/>
		<stop  offset="1" style="stop-color:#484852"/>
	</linearGradient>
	<path class="st1" d="M116.5,103.4c-3.3,1.9-7,3.8-9.3,6.8c-2.3,3.1-4.1,6.8-5.1,10.6c-0.2,0.7-0.3,1.4-0.4,2.1
		c1.4-0.9,2.7-1.8,4.1-2.7c-0.1-0.4-0.2-0.8,0-1.2c0.3-0.8,1.6-1.2,2-2c0.4-0.8-0.1-2,0.3-2.8c0.2-0.3,2.1-1.3,2.3-1.6
		c2.1-2.8,4.6-5,7.6-6.8c1.5-0.9,2.6-2.6,4.3-3.2h0.1c0.6-1,1.2-1.9,1.8-2.9c-1.1,0.2-2,0.2-2.9,0.5
		C119.5,100.6,118.1,102.4,116.5,103.4z"/>
	
		<linearGradient id="SVGID_2_" gradientUnits="userSpaceOnUse" x1="17.0124" y1="-517.4681" x2="37.533" y2="-537.9886" gradientTransform="matrix(4.6259 0 0 -4.6259 -47.1367 -2386.4612)">
		<stop  offset="0" style="stop-color:#FF0054"/>
		<stop  offset="1" style="stop-color:#484852"/>
	</linearGradient>
	<path class="st2" d="M109,100c1.2-1,2.6-1.8,3.9-2.6c2.1-1.2,3.8-3.2,6.1-4c2.2-0.8,4.8-0.4,7.2-0.7c0.5-0.1,1.1-0.2,1.6-0.2
		c0.4-0.9,0.8-1.9,1.1-2.9c-1.1,0.1-2.1,0.3-3.2,0.4c-2.5,0.3-5.3-0.1-7.8,0.8c-2.1,0.7-4,2.4-5.9,3.7
		C111.2,96.3,110.2,98.2,109,100z"/>
	
		<linearGradient id="SVGID_3_" gradientUnits="userSpaceOnUse" x1="11.774" y1="-522.7065" x2="32.2945" y2="-543.2271" gradientTransform="matrix(4.6259 0 0 -4.6259 -47.1367 -2386.4612)">
		<stop  offset="0" style="stop-color:#FF0054"/>
		<stop  offset="1" style="stop-color:#484852"/>
	</linearGradient>
	<path class="st3" d="M93.3,115.3c-0.4,1.1-0.7,2.1-0.9,3.2c-0.8,3.1-0.8,6.4-0.5,9.6c0.8-0.3,1.6-0.7,2.4-1.1
		c0.4-2.6,1.1-5.1,1.8-7.6c0.3-1.1-0.3-2.6,0.1-3.7c0.4-1.1,1.9-1.8,2.4-2.9c0.2-0.5,0.3-1,0.3-1.5C97.2,112.7,95.3,114,93.3,115.3z
		"/>
	
		<linearGradient id="SVGID_4_" gradientUnits="userSpaceOnUse" x1="9.946" y1="-524.5345" x2="30.4665" y2="-545.0551" gradientTransform="matrix(4.6259 0 0 -4.6259 -47.1367 -2386.4612)">
		<stop  offset="0" style="stop-color:#FF0054"/>
		<stop  offset="1" style="stop-color:#484852"/>
	</linearGradient>
	<path class="st4" d="M82.3,131.2c0.5-0.1,1.1-0.3,1.6-0.4c0.1-3.9,0.9-7.8,1.8-11.6c-1.2,0.5-2.5,1-3.7,1.4
		C81.7,124,81.9,127.6,82.3,131.2z"/>
	
		<linearGradient id="SVGID_5_" gradientUnits="userSpaceOnUse" x1="18.9834" y1="-515.4972" x2="39.5039" y2="-536.0176" gradientTransform="matrix(4.6259 0 0 -4.6259 -47.1367 -2386.4612)">
		<stop  offset="0" style="stop-color:#FF0054"/>
		<stop  offset="1" style="stop-color:#484852"/>
	</linearGradient>
	<path class="st5" d="M124.9,82.6c2.1-0.3,4.3-0.6,6.4-0.8c0.2-0.9,0.4-1.8,0.6-2.7c-2.5,0.1-4.9,0.4-7.4,0.8
		c-2.6,0.3-5.3,0.3-7.9,0.8c-0.2,1-0.4,2.1-0.6,3.1C118.8,82.9,121.9,83.1,124.9,82.6z"/>
	
		<linearGradient id="SVGID_6_" gradientUnits="userSpaceOnUse" x1="8.5718" y1="-525.9087" x2="29.0923" y2="-546.4293" gradientTransform="matrix(4.6259 0 0 -4.6259 -47.1367 -2386.4612)">
		<stop  offset="0" style="stop-color:#FF0054"/>
		<stop  offset="1" style="stop-color:#484852"/>
	</linearGradient>
	<path class="st6" d="M72.6,132.8c0.4,0,0.9-0.1,1.3-0.1c-0.1-3.5,0.3-7,0.9-10.4c-0.9,0.2-1.9,0.3-2.8,0.4
		C71.9,126,72.1,129.4,72.6,132.8z"/>
	
		<linearGradient id="SVGID_7_" gradientUnits="userSpaceOnUse" x1="16.3615" y1="-510.4158" x2="41.29" y2="-535.3443" gradientTransform="matrix(4.6259 0 0 -4.6259 -47.1367 -2386.4612)">
		<stop  offset="0" style="stop-color:#FF0054"/>
		<stop  offset="1" style="stop-color:#484852"/>
	</linearGradient>
	<path class="st7" d="M117.3,73.4c2.1-0.2,4.1-0.3,6.2-0.6c3.1-0.4,6.2-0.8,9.3-0.9c0.1-0.9,0.1-1.8,0.2-2.7
		c-3.3,0.1-6.6,0.5-10,0.9c-1.9,0.3-3.8,0.4-5.8,0.6c0,0.5,0,1,0,1.5C117.3,72.6,117.3,73,117.3,73.4z"/>
	
		<linearGradient id="SVGID_8_" gradientUnits="userSpaceOnUse" x1="6.3493" y1="-498.3697" x2="44.9823" y2="-537.0027" gradientTransform="matrix(4.6259 0 0 -4.6259 -47.1367 -2386.4612)">
		<stop  offset="0" style="stop-color:#FF0054"/>
		<stop  offset="1" style="stop-color:#484852"/>
	</linearGradient>
	<path class="st8" d="M122,62.9c3.6-0.5,7.2-0.9,10.9-1c-0.1-0.9-0.1-1.9-0.2-2.8c-3.6,0.1-7.3,0.5-11,1c-0.5,0.1-3.2,0.3-5.7,0.6
		c0.2,1,0.4,2,0.6,3C119,63.4,121.5,63,122,62.9z"/>
	
		<linearGradient id="SVGID_9_" gradientUnits="userSpaceOnUse" x1="7.44" y1="-527.0406" x2="27.9605" y2="-547.5611" gradientTransform="matrix(4.6259 0 0 -4.6259 -47.1367 -2386.4612)">
		<stop  offset="0" style="stop-color:#FF0054"/>
		<stop  offset="1" style="stop-color:#484852"/>
	</linearGradient>
	<path class="st9" d="M62.6,132.9c0.4,0,0.8,0,1.2,0.1c-0.1-3.3,0.2-6.7,0.7-10.1c-0.8,0-1.6-0.1-2.4-0.1
		C62,126.1,62.3,129.5,62.6,132.9z"/>
	
		<linearGradient id="SVGID_10_" gradientUnits="userSpaceOnUse" x1="14.5263" y1="-504.7271" x2="45.0397" y2="-535.2405" gradientTransform="matrix(4.6259 0 0 -4.6259 -47.1367 -2386.4612)">
		<stop  offset="0" style="stop-color:#FF0054"/>
		<stop  offset="1" style="stop-color:#484852"/>
	</linearGradient>
	<path class="st10" d="M115.3,51.3c0.3,0.9,0.5,1.8,0.7,2.8c0.9-0.2,3.7-1,4.8-1.1c3.5-0.5,7.1-0.9,10.8-1c-0.2-0.9-0.4-1.9-0.7-2.8
		c-3.5,0.2-7,0.5-10.5,1C119.4,50.4,116.3,51.2,115.3,51.3z"/>
	
		<linearGradient id="SVGID_11_" gradientUnits="userSpaceOnUse" x1="6.4981" y1="-527.9824" x2="27.0186" y2="-548.5029" gradientTransform="matrix(4.6259 0 0 -4.6259 -47.1367 -2386.4612)">
		<stop  offset="0" style="stop-color:#FF0054"/>
		<stop  offset="1" style="stop-color:#484852"/>
	</linearGradient>
	<path class="st11" d="M52.6,131.6c0.4,0.1,0.7,0.2,1.1,0.2c0-3.4,0.3-6.8,0.8-10.3c-0.8-0.2-1.5-0.4-2.2-0.6
		C52.1,124.5,52.3,128,52.6,131.6z"/>
	
		<linearGradient id="SVGID_12_" gradientUnits="userSpaceOnUse" x1="14.2807" y1="-502.5375" x2="47.5203" y2="-535.7771" gradientTransform="matrix(4.6259 0 0 -4.6259 -47.1367 -2386.4612)">
		<stop  offset="0" style="stop-color:#FF0054"/>
		<stop  offset="1" style="stop-color:#484852"/>
	</linearGradient>
	<path class="st12" d="M116.9,43.4c0.8-0.1,1.7-0.1,2.5-0.3c3-0.4,6-0.7,9.1-0.9c-0.4-0.9-0.8-1.9-1.2-2.8c-2.8,0.2-5.6,0.5-8.3,0.9
		c-0.4,1-1,2-1.8,2.8C117.1,43.2,117,43.3,116.9,43.4z"/>
	
		<linearGradient id="SVGID_13_" gradientUnits="userSpaceOnUse" x1="5.7747" y1="-528.7058" x2="26.2952" y2="-549.2263" gradientTransform="matrix(4.6259 0 0 -4.6259 -47.1367 -2386.4612)">
		<stop  offset="0" style="stop-color:#FF0054"/>
		<stop  offset="1" style="stop-color:#484852"/>
	</linearGradient>
	<path class="st13" d="M42.6,117c-0.3,3.8-0.4,7.7-0.2,11.6c0.4,0.2,0.8,0.3,1.2,0.5c0.1-3.6,0.6-7.3,1.2-11
		C44.1,117.7,43.3,117.4,42.6,117z"/>
	
		<linearGradient id="SVGID_14_" gradientUnits="userSpaceOnUse" x1="5.3087" y1="-529.1719" x2="25.8292" y2="-549.6924" gradientTransform="matrix(4.6259 0 0 -4.6259 -47.1367 -2386.4612)">
		<stop  offset="0" style="stop-color:#FF0054"/>
		<stop  offset="1" style="stop-color:#484852"/>
	</linearGradient>
	<path class="st14" d="M33.4,110.7c-0.7,4.3-0.9,8.6-0.9,13c0.5,0.3,0.9,0.6,1.4,0.8c0.3-4,1-8,1.8-12
		C34.9,111.9,34.1,111.3,33.4,110.7z"/>
	
		<linearGradient id="SVGID_15_" gradientUnits="userSpaceOnUse" x1="15.7714" y1="-502.3068" x2="49.5455" y2="-536.0809" gradientTransform="matrix(4.6259 0 0 -4.6259 -47.1367 -2386.4612)">
		<stop  offset="0" style="stop-color:#FF0054"/>
		<stop  offset="1" style="stop-color:#484852"/>
	</linearGradient>
	<path class="st15" d="M118.4,33.2c1.8-0.3,3.5-0.5,5.4-0.6c-0.6-0.9-1.1-1.8-1.7-2.7c-1.5,0.2-3,0.3-4.4,0.6
		c-0.5,0.1-1,0.1-1.5,0.2l1,1C117.6,32.2,118,32.7,118.4,33.2z"/>
	
		<linearGradient id="SVGID_16_" gradientUnits="userSpaceOnUse" x1="5.1712" y1="-529.3094" x2="25.6917" y2="-549.8298" gradientTransform="matrix(4.6259 0 0 -4.6259 -47.1367 -2386.4612)">
		<stop  offset="0" style="stop-color:#FF0054"/>
		<stop  offset="1" style="stop-color:#484852"/>
	</linearGradient>
	<path class="st16" d="M25.9,102.6c-1.1,4.7-2.1,9.5-2.7,14.3c0.4,0.4,0.9,0.7,1.3,1.1c0.7-4.6,1.6-9.2,2.7-13.8
		C26.7,103.7,26.3,103.2,25.9,102.6z"/>
	
		<linearGradient id="SVGID_17_" gradientUnits="userSpaceOnUse" x1="20.3857" y1="-506.6656" x2="47.9751" y2="-534.2551" gradientTransform="matrix(4.6259 0 0 -4.6259 -47.1367 -2386.4612)">
		<stop  offset="0" style="stop-color:#FF0054"/>
		<stop  offset="1" style="stop-color:#484852"/>
	</linearGradient>
	<path class="st17" d="M109.3,23.8c2.3-0.6,4.6-1.2,7-1.5c-0.5-0.6-1-1.1-1.5-1.7c-2.5,0.4-5.1,0.7-7.7,1.1L109.3,23.8z"/>
	
		<linearGradient id="SVGID_18_" gradientUnits="userSpaceOnUse" x1="17.1836" y1="-506.4263" x2="49.9393" y2="-539.1821" gradientTransform="matrix(4.6259 0 0 -4.6259 -47.1367 -2386.4612)">
		<stop  offset="0" style="stop-color:#FF0054"/>
		<stop  offset="1" style="stop-color:#484852"/>
	</linearGradient>
	<path class="st18" d="M84.9,23.1c0.7-0.1,8.2-3.3,8.5-3.4c4.9-1.7,10-3.6,15-4.9c-0.9-0.7-1.9-1.5-2.8-2.2
		c-4.6,0.7-9.1,1.6-13.6,3.1c-0.7,0.2-9.4,4-12.2,5.3c0,0,0,0,0,0C81.5,21.6,83.2,22.3,84.9,23.1z"/>
	
		<linearGradient id="SVGID_19_" gradientUnits="userSpaceOnUse" x1="5.4373" y1="-529.0432" x2="25.9578" y2="-549.5638" gradientTransform="matrix(4.6259 0 0 -4.6259 -47.1367 -2386.4612)">
		<stop  offset="0" style="stop-color:#FF0054"/>
		<stop  offset="1" style="stop-color:#484852"/>
	</linearGradient>
	<path class="st19" d="M17.3,98.8c-0.8,3.2-1.5,6.5-2.2,9.8c0.5,0.5,0.9,1.1,1.4,1.6c0.7-3.7,1.6-7.4,2.5-11.1
		c0.5-1.8,1-3.6,1.5-5.5c-0.4-0.8-0.7-1.6-1.1-2.5C18.6,93.8,17.9,96.3,17.3,98.8z"/>
	
		<linearGradient id="SVGID_20_" gradientUnits="userSpaceOnUse" x1="6.2882" y1="-528.1923" x2="26.8087" y2="-548.7128" gradientTransform="matrix(4.6259 0 0 -4.6259 -47.1367 -2386.4612)">
		<stop  offset="0" style="stop-color:#FF0054"/>
		<stop  offset="1" style="stop-color:#484852"/>
	</linearGradient>
	<path class="st20" d="M8.3,96.6c-0.1,0.5-0.2,1-0.4,1.5c0.4,0.8,0.9,1.6,1.4,2.4c0.3-1.1,0.6-2.3,0.9-3.4
		c1.7-6.3,3.3-12.8,5.8-18.9c-0.1-1.2-0.3-2.5-0.3-3.7C12.6,81.6,10.2,89.1,8.3,96.6z"/>
	
		<linearGradient id="SVGID_21_" gradientUnits="userSpaceOnUse" x1="21.7227" y1="-510.3618" x2="45.5769" y2="-534.216" gradientTransform="matrix(4.6259 0 0 -4.6259 -47.1367 -2386.4612)">
		<stop  offset="0" style="stop-color:#FF0054"/>
		<stop  offset="1" style="stop-color:#484852"/>
	</linearGradient>
	<path class="st21" d="M81.5,14.2c2.9-1.1,5.9-2.1,8.9-3.1c2.8-1,5.6-1.9,8.5-2.9c-1.7-0.9-3.5-1.8-5.3-2.6c-1.5,0.4-3,0.9-4.5,1.4
		c-3.1,1.1-6,2.4-8.9,3.9C80.8,11.9,81.3,13,81.5,14.2z"/>
	
		<linearGradient id="SVGID_22_" gradientUnits="userSpaceOnUse" x1="15.6892" y1="-518.3482" x2="37.0408" y2="-539.6998" gradientTransform="matrix(4.6259 0 0 -4.6259 -47.1367 -2386.4612)">
		<stop  offset="0" style="stop-color:#FF0054"/>
		<stop  offset="1" style="stop-color:#484852"/>
	</linearGradient>
	<path class="st22" d="M48.9,24.4c1.2-1.1,2.6-2.3,4-3.5c-0.8-1-1.4-2.1-1.6-3.3C43.9,22.6,35.6,29,30.4,36c0.2-0.1,0.5-0.3,0.8-0.5
		C36.2,30.7,42.2,26.9,48.9,24.4z"/>
	
		<linearGradient id="SVGID_23_" gradientUnits="userSpaceOnUse" x1="21.8779" y1="-512.1594" x2="43.2296" y2="-533.511" gradientTransform="matrix(4.6259 0 0 -4.6259 -47.1367 -2386.4612)">
		<stop  offset="0" style="stop-color:#FF0054"/>
		<stop  offset="1" style="stop-color:#484852"/>
	</linearGradient>
	<path class="st23" d="M86.4,3C84,2.2,81.5,1.6,79,1.2c-4.2,2-8.1,4.2-12,6.5h6.3C77.6,6,82,4.5,86.4,3z"/>
	
		<linearGradient id="SVGID_24_" gradientUnits="userSpaceOnUse" x1="9.0421" y1="-526.0347" x2="28.4721" y2="-545.4646" gradientTransform="matrix(4.6259 0 0 -4.6259 -47.1367 -2386.4612)">
		<stop  offset="0" style="stop-color:#FF0054"/>
		<stop  offset="1" style="stop-color:#484852"/>
	</linearGradient>
	<path class="st24" d="M24,44.3c-0.8,0.8-1.8,1.8-3.1,3c-8.6,11.5-14.3,23-18.6,36.7c0.3,1.2,0.7,2.3,1,3.5c1.7-6,3.6-12.1,6.3-17.7
		c2.4-4.8,5.4-9.3,8.5-13.7c0.3-1.1,0.8-2.3,1.4-3.6C20.8,49.6,22.3,46.9,24,44.3z"/>
	
		<linearGradient id="SVGID_25_" gradientUnits="userSpaceOnUse" x1="14.3578" y1="-520.1227" x2="34.8783" y2="-540.6432" gradientTransform="matrix(4.6259 0 0 -4.6259 -47.1367 -2386.4612)">
		<stop  offset="0" style="stop-color:#FF0054"/>
		<stop  offset="1" style="stop-color:#484852"/>
	</linearGradient>
	<path class="st25" d="M58.4,4.8C61.6,3,65,1.4,68.4,0c-0.6,0-1.2,0-1.8,0c-1.7,0-3.4,0.1-5,0.2c-1.4,0.8-2.8,1.7-4.3,2.5
		c-16.5,9.8-31.7,22.1-43.1,37.4C8.5,47.5,3.8,55.6,0.1,64C0,64.8,0,65.7,0,66.5c0,0.8,0,1.6,0,2.4c0.5-1,0.9-2.1,1.4-3.1
		C5.5,57.4,11.5,50,17.1,42.5C28.6,27.6,42.2,14.3,58.4,4.8z"/>
	
		<linearGradient id="SVGID_26_" gradientUnits="userSpaceOnUse" x1="14.1452" y1="-520.3353" x2="34.6657" y2="-540.8558" gradientTransform="matrix(4.6259 0 0 -4.6259 -47.1367 -2386.4612)">
		<stop  offset="0" style="stop-color:#FF0054"/>
		<stop  offset="1" style="stop-color:#484852"/>
	</linearGradient>
	<path class="st26" d="M42.7,4.4c-5.9,2.3-11.4,5.3-16.3,9c-4.4,3.4-8.5,7.2-12,11.7C9.6,31.3,5.8,38.4,3.2,46.1c2.2-3,4.5-6,6.7-9
		C19.4,24.8,30.3,13.5,42.7,4.4z"/>
	<path class="st27" d="M66.3,18.2h-0.3v0.7c0.1-0.1,0.2-0.1,0.3-0.2V18.2z"/>
	<path class="st27" d="M66.3,27v-7.2c-0.1,0-0.2-0.1-0.3-0.1V27C66.1,27,66.2,27,66.3,27z"/>
	<path class="st27" d="M66.3,19.8v-1c-0.1,0.1-0.2,0.1-0.3,0.2v0.7C66.1,19.7,66.2,19.7,66.3,19.8z"/>
	<path class="st28" d="M66.8,27v-7.9c-0.2,0.2-0.3,0.5-0.5,0.7c0,0,0,0,0,0V27C66.5,27,66.7,27,66.8,27z"/>
	<path class="st28" d="M66.6,18.6c0.1,0,0.1-0.1,0.2-0.1v-0.3h-0.5v0.6C66.4,18.7,66.5,18.6,66.6,18.6z"/>
	<path class="st28" d="M66.8,19.1v-0.6c-0.1,0-0.1,0.1-0.2,0.1c-0.1,0.1-0.2,0.1-0.3,0.2v1c0,0,0,0,0,0
		C66.5,19.5,66.7,19.3,66.8,19.1z"/>
	<path class="st29" d="M66.8,27v-7.9c0,0,0,0,0,0L66.8,27C66.8,27,66.8,27,66.8,27z"/>
	<path class="st29" d="M66.8,18.5v-0.3h0L66.8,18.5C66.8,18.5,66.8,18.5,66.8,18.5z"/>
	<path class="st29" d="M66.8,19.1C66.8,19.1,66.8,19.1,66.8,19.1l0-0.6c0,0,0,0,0,0V19.1z"/>
	<path class="st30" d="M98.2,39.9c0.1,0.1,0.2,0.2,0.3,0.3v-0.6L98.2,39.9z"/>
	<path class="st31" d="M99,40.3v-1.2l-0.5,0.5v0.6c0.1,0.1,0.2,0.2,0.3,0.3L99,40.3z"/>
	<polygon class="st32" points="99.5,39.8 99.5,38.6 99,39.1 99,40.3 	"/>
	<polygon class="st33" points="100,38.1 99.5,38.6 99.5,39.8 100,39.3 	"/>
	<polygon class="st34" points="100.5,38.7 100.5,37.6 100,38.1 100,39.3 	"/>
	<polygon class="st35" points="101,38.2 101,37.1 100.5,37.6 100.5,38.7 	"/>
	<polygon class="st36" points="101,38.2 101.5,37.7 101.5,36.6 101,37.1 	"/>
	<polygon class="st37" points="101.5,36.6 101.5,37.7 102,37.2 102,36.1 	"/>
	<polygon class="st38" points="102,36.1 102,37.2 102.6,36.7 102.6,35.6 	"/>
	<polygon class="st39" points="102.6,35.6 102.6,36.7 103.1,36.2 103.1,35.1 	"/>
	<polygon class="st40" points="103.1,35.1 103.1,36.2 103.6,35.7 103.6,34.6 	"/>
	<polygon class="st41" points="103.6,34.6 103.6,35.7 104.1,35.2 104.1,34.1 	"/>
	<polygon class="st42" points="104.1,34.1 104.1,35.2 104.6,34.7 104.6,33.9 104.4,33.7 	"/>
	<polygon class="st43" points="105,34.3 104.6,33.9 104.6,34.7 	"/>
</g>
<linearGradient id="SVGID_27_" gradientUnits="userSpaceOnUse" x1="54.4876" y1="81.4445" x2="63.5679" y2="81.4445">
	<stop  offset="0" style="stop-color:#FF0054"/>
	<stop  offset="1" style="stop-color:#484852"/>
</linearGradient>
<polygon class="st44" points="54.5,86 63.6,86 63.6,76.9 54.5,76.9 54.5,86 "/>
<linearGradient id="SVGID_28_" gradientUnits="userSpaceOnUse" x1="120.345" y1="2.4492" x2="161.9106" y2="2.4492" gradientTransform="matrix(1 -6.363909e-03 6.363909e-03 1 -51.3447 48.3266)">
	<stop  offset="0" style="stop-color:#FF0054;stop-opacity:0"/>
	<stop  offset="1" style="stop-color:#484852"/>
</linearGradient>
<path class="st45" d="M68.9,30.7l0.2,38.7l38.6-0.2C107.5,47.8,90.2,30.6,68.9,30.7z"/>
<linearGradient id="SVGID_29_" gradientUnits="userSpaceOnUse" x1="54.4982" y1="74.3765" x2="77.721" y2="74.3765">
	<stop  offset="0" style="stop-color:#FF0054"/>
	<stop  offset="1" style="stop-color:#484852"/>
</linearGradient>
<path class="st46" d="M54.5,62.8v11.3h2.4c6.3,0,9.5,3.2,9.5,9.5V86h11.3V62.8H54.5L54.5,62.8z M72.9,67.6L72.9,67.6
	c0,3.1,0,10.5,0,13.6c-0.9,0-1,0-1.9,0c-0.8-6.7-5-11-11.8-11.8c0-0.8,0-1,0-1.9C62.4,67.6,69.8,67.6,72.9,67.6L72.9,67.6z"/>
<linearGradient id="SVGID_30_" gradientUnits="userSpaceOnUse" x1="46.3574" y1="43.7288" x2="53.444" y2="43.7288">
	<stop  offset="0" style="stop-color:#FF0054"/>
	<stop  offset="1" style="stop-color:#964852"/>
</linearGradient>
<circle class="st47" cx="49.9" cy="43.7" r="3.5"/>
<linearGradient id="SVGID_31_" gradientUnits="userSpaceOnUse" x1="34.1627" y1="55.9231" x2="41.2508" y2="55.9231">
	<stop  offset="0" style="stop-color:#FF0054"/>
	<stop  offset="1" style="stop-color:#964852"/>
</linearGradient>
<path class="st48" d="M35.9,59c1.7,1,3.9,0.4,4.8-1.3c1-1.7,0.4-3.9-1.3-4.8c-1.7-1-3.9-0.4-4.8,1.3C33.7,55.8,34.2,58,35.9,59z"/>
<linearGradient id="SVGID_32_" gradientUnits="userSpaceOnUse" x1="29.6993" y1="72.5816" x2="36.7867" y2="72.5816">
	<stop  offset="0" style="stop-color:#FF0054"/>
	<stop  offset="1" style="stop-color:#964852"/>
</linearGradient>
<circle class="st49" cx="33.2" cy="72.6" r="3.5"/>
<linearGradient id="SVGID_33_" gradientUnits="userSpaceOnUse" x1="34.1636" y1="89.2389" x2="41.2501" y2="89.2389">
	<stop  offset="0" style="stop-color:#FF0054"/>
	<stop  offset="1" style="stop-color:#964852"/>
</linearGradient>
<circle class="st50" cx="37.7" cy="89.2" r="3.5"/>
<linearGradient id="SVGID_34_" gradientUnits="userSpaceOnUse" x1="46.3582" y1="101.4332" x2="53.4456" y2="101.4332">
	<stop  offset="0" style="stop-color:#A80054"/>
	<stop  offset="1" style="stop-color:#674852"/>
</linearGradient>
<circle class="st51" cx="49.9" cy="101.4" r="3.5"/>
<linearGradient id="SVGID_35_" gradientUnits="userSpaceOnUse" x1="63.0159" y1="105.8962" x2="70.1033" y2="105.8962">
	<stop  offset="0" style="stop-color:#A80054"/>
	<stop  offset="1" style="stop-color:#674852"/>
</linearGradient>
<circle class="st52" cx="66.6" cy="105.9" r="3.5"/>
<linearGradient id="SVGID_36_" gradientUnits="userSpaceOnUse" x1="79.6732" y1="101.4328" x2="86.7615" y2="101.4328">
	<stop  offset="0" style="stop-color:#A80054"/>
	<stop  offset="1" style="stop-color:#674852"/>
</linearGradient>
<path class="st53" d="M81.4,98.4c-1.7,1-2.3,3.1-1.3,4.8c1,1.7,3.1,2.3,4.8,1.3c1.7-1,2.3-3.1,1.3-4.8C85.3,98,83.1,97.4,81.4,98.4z
	"/>
<linearGradient id="SVGID_37_" gradientUnits="userSpaceOnUse" x1="91.8683" y1="89.2381" x2="98.9557" y2="89.2381">
	<stop  offset="0" style="stop-color:#A80054"/>
	<stop  offset="1" style="stop-color:#674852"/>
</linearGradient>
<circle class="st54" cx="95.4" cy="89.2" r="3.5"/>
<linearGradient id="SVGID_38_" gradientUnits="userSpaceOnUse" x1="96.331" y1="72.5804" x2="103.4183" y2="72.5804">
	<stop  offset="0" style="stop-color:#FF0054"/>
	<stop  offset="1" style="stop-color:#484852"/>
</linearGradient>
<circle class="st55" cx="99.9" cy="72.6" r="3.5"/>
<linearGradient id="SVGID_39_" gradientUnits="userSpaceOnUse" x1="20.8901" y1="65.3402" x2="114.2976" y2="65.3402">
	<stop  offset="0" style="stop-color:#FF0054"/>
	<stop  offset="1" style="stop-color:#484852"/>
</linearGradient>
<path class="st56" d="M109.5,39.4c0.5,0.5,1.3,0.8,2,0.8c0.7,0,1.4-0.3,2-0.8c1.1-1.1,1.1-2.9,0-4l-10.2-10.2c-1.1-1.1-2.9-1.1-4,0
	c-1.1,1.1-1.1,2.9,0,4l1.1,1.1l-6,5.9c-6.3-4.9-13.9-8.3-22.4-9.3v-8.3h1.5c1.6,0,2.8-1.3,2.8-2.8c0-1.6-1.3-2.8-2.8-2.8H59.2
	c-1.6,0-2.8,1.3-2.8,2.8s1.3,2.8,2.8,2.8h1.6v8.3c-22.5,2.8-39.9,22-39.9,45.2c0,25.1,20.5,45.6,45.6,45.6s45.6-20.4,45.6-45.6
	c0-10.5-3.6-20.2-9.6-28l5.9-5.9L109.5,39.4z M66.5,112.1c-22,0-39.9-17.9-39.9-39.9s17.9-39.9,39.9-39.9s39.9,17.9,39.9,39.9
	S88.5,112.1,66.5,112.1z"/>
</svg>
